<svg width="80" height="80" viewBox="0 0 80 80" fill="none" xmlns="http://www.w3.org/2000/svg">
<g filter="url(#filter0_d_306_277)">
<circle cx="40" cy="35" r="25" fill="url(#paint0_linear_306_277)" shape-rendering="crispEdges"/>
</g>
<path d="M36.25 43.4375C36.25 43.1889 36.3488 42.9504 36.5246 42.7746C36.7004 42.5988 36.9389 42.5 37.1875 42.5H42.8125C43.0611 42.5 43.2996 42.5988 43.4754 42.7746C43.6512 42.9504 43.75 43.1889 43.75 43.4375C43.75 43.6862 43.6512 43.9246 43.4754 44.1004C43.2996 44.2763 43.0611 44.375 42.8125 44.375H37.1875C36.9389 44.375 36.7004 44.2763 36.5246 44.1004C36.3488 43.9246 36.25 43.6862 36.25 43.4375ZM30.625 35.1163C30.625 32.675 32.9406 30.8094 35.3687 31.0363C38.4495 31.3238 41.5504 31.3238 44.6312 31.0363C47.0594 30.8094 49.375 32.675 49.375 35.1163V37.2857C49.3827 37.7005 49.2426 38.1046 48.9799 38.4257C48.7171 38.7468 48.3488 38.9641 47.9406 39.0388C46.3562 39.3144 43.5531 39.6875 40 39.6875C36.4469 39.6875 33.6437 39.3125 32.0594 39.0388C31.6512 38.9641 31.2829 38.7468 31.0201 38.4257C30.7574 38.1046 30.6173 37.7005 30.625 37.2857V35.1163ZM39.1412 33.5657C39.0682 33.5532 38.9932 33.5583 38.9225 33.5805C38.8517 33.6026 38.7873 33.6412 38.7344 33.6932L37.0094 35.3807C35.8361 35.3107 34.6659 35.1963 33.5012 35.0375C33.3806 35.0255 33.2599 35.0608 33.1647 35.1359C33.0694 35.211 33.007 35.32 32.9905 35.4402C32.974 35.5603 33.0047 35.6822 33.0762 35.7802C33.1476 35.8782 33.2543 35.9447 33.3737 35.9657C34.405 36.1082 35.6837 36.245 37.1612 36.3275C37.2263 36.3312 37.2914 36.3213 37.3525 36.2983C37.4135 36.2754 37.4691 36.24 37.5156 36.1944L38.9294 34.8144L40.5175 38.0207C40.5509 38.0879 40.6001 38.1462 40.6607 38.1905C40.7214 38.2348 40.7918 38.2638 40.8661 38.2752C40.9403 38.2866 41.0163 38.28 41.0874 38.2559C41.1586 38.2319 41.2229 38.191 41.275 38.1369L43.0225 36.3182C44.2278 36.2466 45.4299 36.129 46.6262 35.9657C46.7457 35.9447 46.8524 35.8782 46.9238 35.7802C46.9953 35.6822 47.026 35.5603 47.0095 35.4402C46.993 35.32 46.9305 35.211 46.8353 35.1359C46.7401 35.0608 46.6194 35.0255 46.4987 35.0375C45.49 35.1763 44.2356 35.3094 42.7862 35.3919C42.6682 35.3985 42.5571 35.4494 42.475 35.5344L41.0612 37.0063L39.4825 33.8188C39.4496 33.7527 39.4015 33.6953 39.3422 33.6513C39.2829 33.6073 39.214 33.578 39.1412 33.5657V33.5657Z" fill="black" fill-opacity="0.65"/>
<path d="M40.9375 23.4988C41.295 23.2924 41.5743 22.9739 41.7323 22.5925C41.8902 22.2112 41.9179 21.7884 41.8111 21.3897C41.7043 20.991 41.4689 20.6387 41.1414 20.3875C40.814 20.1362 40.4128 20 40 20C39.5872 20 39.186 20.1362 38.8586 20.3875C38.5311 20.6387 38.2957 20.991 38.1889 21.3897C38.0821 21.7884 38.1098 22.2112 38.2677 22.5925C38.4257 22.9739 38.705 23.2924 39.0625 23.4988V25.625H35.3125C33.0747 25.625 30.9286 26.514 29.3463 28.0963C27.7639 29.6787 26.875 31.8248 26.875 34.0625V35C26.3777 35 25.9008 35.1976 25.5492 35.5492C25.1975 35.9009 25 36.3778 25 36.875V40.625C25 41.1223 25.1975 41.5992 25.5492 41.9509C25.9008 42.3025 26.3777 42.5 26.875 42.5V44.375C26.875 45.3696 27.2701 46.3234 27.9733 47.0267C28.6766 47.73 29.6304 48.1251 30.625 48.1251H49.375C50.3696 48.1251 51.3234 47.73 52.0266 47.0267C52.7299 46.3234 53.125 45.3696 53.125 44.375V42.5C53.6223 42.5 54.0992 42.3025 54.4508 41.9509C54.8025 41.5992 55 41.1223 55 40.625V36.875C55 36.3778 54.8025 35.9009 54.4508 35.5492C54.0992 35.1976 53.6223 35 53.125 35V34.0625C53.125 31.8248 52.2361 29.6787 50.6537 28.0963C49.0714 26.514 46.9253 25.625 44.6875 25.625H40.9375V23.4988ZM51.25 34.0625V44.375C51.25 44.8723 51.0525 45.3492 50.7008 45.7009C50.3492 46.0525 49.8723 46.25 49.375 46.25H30.625C30.1277 46.25 29.6508 46.0525 29.2992 45.7009C28.9475 45.3492 28.75 44.8723 28.75 44.375V34.0625C28.75 32.3221 29.4414 30.6529 30.6721 29.4222C31.9028 28.1915 33.572 27.5 35.3125 27.5H44.6875C46.428 27.5 48.0972 28.1915 49.3279 29.4222C50.5586 30.6529 51.25 32.3221 51.25 34.0625V34.0625Z" fill="black" fill-opacity="0.65"/>
<defs>
<filter id="filter0_d_306_277" x="0" y="0" width="80" height="80" filterUnits="userSpaceOnUse" color-interpolation-filters="sRGB">
<feFlood flood-opacity="0" result="BackgroundImageFix"/>
<feColorMatrix in="SourceAlpha" type="matrix" values="0 0 0 0 0 0 0 0 0 0 0 0 0 0 0 0 0 0 127 0" result="hardAlpha"/>
<feOffset dy="5"/>
<feGaussianBlur stdDeviation="7.5"/>
<feComposite in2="hardAlpha" operator="out"/>
<feColorMatrix type="matrix" values="0 0 0 0 0 0 0 0 0 0 0 0 0 0 0 0 0 0 0.1 0"/>
<feBlend mode="normal" in2="BackgroundImageFix" result="effect1_dropShadow_306_277"/>
<feBlend mode="normal" in="SourceGraphic" in2="effect1_dropShadow_306_277" result="shape"/>
</filter>
<linearGradient id="paint0_linear_306_277" x1="15" y1="10" x2="65" y2="60" gradientUnits="userSpaceOnUse">
<stop stop-color="#4B7BE5"/>
<stop offset="1" stop-color="#CBABF4" stop-opacity="0"/>
</linearGradient>
</defs>
</svg>
