<svg width="145" height="92" viewBox="0 0 145 92" fill="none" xmlns="http://www.w3.org/2000/svg">
<path d="M6.93359 85.7539C9.83073 85.7539 11.2793 84.0482 11.2793 80.6367C11.2793 77.7331 9.83073 76.2812 6.93359 76.2812H4.05273V85.7539H6.93359ZM1.46484 88V74.0352H6.93359C11.556 74.0352 13.8672 76.2357 13.8672 80.6367C13.8672 85.5456 11.556 88 6.93359 88H1.46484ZM18.2715 80.9785C18.2715 84.2272 19.7135 85.8516 22.5977 85.8516C25.4102 85.8516 26.8164 84.2272 26.8164 80.9785C26.8164 77.7819 25.4102 76.1836 22.5977 76.1836C19.7135 76.1836 18.2715 77.7819 18.2715 80.9785ZM15.5859 81.0371C15.5859 76.304 17.9232 73.9375 22.5977 73.9375C27.2005 73.9375 29.502 76.304 29.502 81.0371C29.502 85.7441 27.2005 88.0977 22.5977 88.0977C18.1315 88.0977 15.7943 85.7441 15.5859 81.0371ZM31.9531 88V74.0352H34.6387L39.375 84.6309L44.0137 74.0352H46.6016V88H44.209V78.2734L40.4199 88H38.2129L34.3457 78.2734V88H31.9531ZM74.541 74.0352V76.2812H70.5371V88H67.9492V76.2812H63.9453V74.0352H74.541ZM78.6035 74.0352V88H76.0156V74.0352H78.6035ZM92.6758 87.4141C91.4714 87.8698 90.1042 88.0977 88.5742 88.0977C83.5612 88.0977 81.0547 85.6725 81.0547 80.8223C81.0547 76.2324 83.5612 73.9375 88.5742 73.9375C90.1042 73.9375 91.4714 74.1654 92.6758 74.6211V76.9648C91.4714 76.444 90.1693 76.1836 88.7695 76.1836C85.4167 76.1836 83.7402 77.7298 83.7402 80.8223C83.7402 84.1751 85.4167 85.8516 88.7695 85.8516C90.1693 85.8516 91.4714 85.5911 92.6758 85.0703V87.4141ZM94.873 87.4141V85.0703C96.2728 85.5911 97.8548 85.8516 99.6191 85.8516C101.761 85.8516 102.832 85.1354 102.832 83.7031C102.832 82.6615 102.174 82.1406 100.859 82.1406H98.6719C95.8138 82.1406 94.3848 80.8385 94.3848 78.2344C94.3848 75.3698 96.4193 73.9375 100.488 73.9375C102.051 73.9375 103.532 74.1654 104.932 74.6211V76.9648C103.532 76.444 102.051 76.1836 100.488 76.1836C98.1445 76.1836 96.9727 76.8672 96.9727 78.2344C96.9727 79.276 97.5391 79.7969 98.6719 79.7969H100.859C103.9 79.7969 105.42 81.099 105.42 83.7031C105.42 86.6328 103.486 88.0977 99.6191 88.0977C97.8548 88.0977 96.2728 87.8698 94.873 87.4141ZM109.814 80.9785C109.814 84.2272 111.257 85.8516 114.141 85.8516C116.953 85.8516 118.359 84.2272 118.359 80.9785C118.359 77.7819 116.953 76.1836 114.141 76.1836C111.257 76.1836 109.814 77.7819 109.814 80.9785ZM107.129 81.0371C107.129 76.304 109.466 73.9375 114.141 73.9375C118.743 73.9375 121.045 76.304 121.045 81.0371C121.045 85.7441 118.743 88.0977 114.141 88.0977C109.674 88.0977 107.337 85.7441 107.129 81.0371ZM132.666 74.0352V76.2617H126.064V79.7773H132.334V82.0918H126.035V88H123.496V74.0352H132.666ZM143.994 74.0352V76.2812H139.99V88H137.402V76.2812H133.398V74.0352H143.994Z" fill="#2868F5"/>
<path d="M51.7285 80.9785C51.7285 84.2272 53.1706 85.8516 56.0547 85.8516C58.8672 85.8516 60.2734 84.2272 60.2734 80.9785C60.2734 77.7819 58.8672 76.1836 56.0547 76.1836C53.1706 76.1836 51.7285 77.7819 51.7285 80.9785ZM49.043 81.0371C49.043 76.304 51.3802 73.9375 56.0547 73.9375C60.6576 73.9375 62.959 76.304 62.959 81.0371C62.959 85.7441 60.6576 88.0977 56.0547 88.0977C51.5885 88.0977 49.2513 85.7441 49.043 81.0371Z" fill="#C74545"/>
<g filter="url(#filter0_d_305_271)">
<circle cx="73" cy="35" r="25" fill="url(#paint0_linear_305_271)" shape-rendering="crispEdges"/>
</g>
<path d="M69.25 43.4375C69.25 43.1889 69.3488 42.9504 69.5246 42.7746C69.7004 42.5988 69.9389 42.5 70.1875 42.5H75.8125C76.0611 42.5 76.2996 42.5988 76.4754 42.7746C76.6512 42.9504 76.75 43.1889 76.75 43.4375C76.75 43.6862 76.6512 43.9246 76.4754 44.1004C76.2996 44.2763 76.0611 44.375 75.8125 44.375H70.1875C69.9389 44.375 69.7004 44.2763 69.5246 44.1004C69.3488 43.9246 69.25 43.6862 69.25 43.4375ZM63.625 35.1163C63.625 32.675 65.9406 30.8094 68.3687 31.0363C71.4495 31.3238 74.5504 31.3238 77.6312 31.0363C80.0594 30.8094 82.375 32.675 82.375 35.1163V37.2857C82.3827 37.7005 82.2426 38.1046 81.9799 38.4257C81.7171 38.7468 81.3488 38.9641 80.9406 39.0388C79.3562 39.3144 76.5531 39.6875 73 39.6875C69.4469 39.6875 66.6437 39.3125 65.0594 39.0388C64.6512 38.9641 64.2829 38.7468 64.0201 38.4257C63.7574 38.1046 63.6173 37.7005 63.625 37.2857V35.1163ZM72.1412 33.5657C72.0682 33.5532 71.9932 33.5583 71.9225 33.5805C71.8517 33.6026 71.7873 33.6412 71.7344 33.6932L70.0094 35.3807C68.8361 35.3107 67.6659 35.1963 66.5012 35.0375C66.3806 35.0255 66.2599 35.0608 66.1647 35.1359C66.0694 35.211 66.007 35.32 65.9905 35.4402C65.974 35.5603 66.0047 35.6822 66.0762 35.7802C66.1476 35.8782 66.2543 35.9447 66.3737 35.9657C67.405 36.1082 68.6837 36.245 70.1612 36.3275C70.2263 36.3312 70.2914 36.3213 70.3525 36.2983C70.4135 36.2754 70.4691 36.24 70.5156 36.1944L71.9294 34.8144L73.5175 38.0207C73.5509 38.0879 73.6001 38.1462 73.6607 38.1905C73.7214 38.2348 73.7918 38.2638 73.8661 38.2752C73.9403 38.2866 74.0163 38.28 74.0874 38.2559C74.1586 38.2319 74.2229 38.191 74.275 38.1369L76.0225 36.3182C77.2278 36.2466 78.4299 36.129 79.6262 35.9657C79.7457 35.9447 79.8524 35.8782 79.9238 35.7802C79.9953 35.6822 80.026 35.5603 80.0095 35.4402C79.993 35.32 79.9305 35.211 79.8353 35.1359C79.7401 35.0608 79.6194 35.0255 79.4987 35.0375C78.49 35.1763 77.2356 35.3094 75.7862 35.3919C75.6682 35.3985 75.5571 35.4494 75.475 35.5344L74.0612 37.0063L72.4825 33.8188C72.4496 33.7527 72.4015 33.6953 72.3422 33.6513C72.2829 33.6073 72.214 33.578 72.1412 33.5657V33.5657Z" fill="black" fill-opacity="0.65"/>
<path d="M73.9375 23.4988C74.295 23.2924 74.5743 22.9739 74.7323 22.5925C74.8902 22.2112 74.9179 21.7884 74.8111 21.3897C74.7043 20.991 74.4689 20.6387 74.1414 20.3875C73.814 20.1362 73.4128 20 73 20C72.5872 20 72.186 20.1362 71.8586 20.3875C71.5311 20.6387 71.2957 20.991 71.1889 21.3897C71.0821 21.7884 71.1098 22.2112 71.2677 22.5925C71.4257 22.9739 71.705 23.2924 72.0625 23.4988V25.625H68.3125C66.0747 25.625 63.9286 26.514 62.3463 28.0963C60.7639 29.6787 59.875 31.8248 59.875 34.0625V35C59.3777 35 58.9008 35.1976 58.5492 35.5492C58.1975 35.9009 58 36.3778 58 36.875V40.625C58 41.1223 58.1975 41.5992 58.5492 41.9509C58.9008 42.3025 59.3777 42.5 59.875 42.5V44.375C59.875 45.3696 60.2701 46.3234 60.9733 47.0267C61.6766 47.73 62.6304 48.1251 63.625 48.1251H82.375C83.3696 48.1251 84.3234 47.73 85.0266 47.0267C85.7299 46.3234 86.125 45.3696 86.125 44.375V42.5C86.6223 42.5 87.0992 42.3025 87.4508 41.9509C87.8025 41.5992 88 41.1223 88 40.625V36.875C88 36.3778 87.8025 35.9009 87.4508 35.5492C87.0992 35.1976 86.6223 35 86.125 35V34.0625C86.125 31.8248 85.2361 29.6787 83.6537 28.0963C82.0714 26.514 79.9253 25.625 77.6875 25.625H73.9375V23.4988ZM84.25 34.0625V44.375C84.25 44.8723 84.0525 45.3492 83.7008 45.7009C83.3492 46.0525 82.8723 46.25 82.375 46.25H63.625C63.1277 46.25 62.6508 46.0525 62.2992 45.7009C61.9475 45.3492 61.75 44.8723 61.75 44.375V34.0625C61.75 32.3221 62.4414 30.6529 63.6721 29.4222C64.9028 28.1915 66.572 27.5 68.3125 27.5H77.6875C79.428 27.5 81.0972 28.1915 82.3279 29.4222C83.5586 30.6529 84.25 32.3221 84.25 34.0625V34.0625Z" fill="black" fill-opacity="0.65"/>
<defs>
<filter id="filter0_d_305_271" x="33" y="0" width="80" height="80" filterUnits="userSpaceOnUse" color-interpolation-filters="sRGB">
<feFlood flood-opacity="0" result="BackgroundImageFix"/>
<feColorMatrix in="SourceAlpha" type="matrix" values="0 0 0 0 0 0 0 0 0 0 0 0 0 0 0 0 0 0 127 0" result="hardAlpha"/>
<feOffset dy="5"/>
<feGaussianBlur stdDeviation="7.5"/>
<feComposite in2="hardAlpha" operator="out"/>
<feColorMatrix type="matrix" values="0 0 0 0 0 0 0 0 0 0 0 0 0 0 0 0 0 0 0.1 0"/>
<feBlend mode="normal" in2="BackgroundImageFix" result="effect1_dropShadow_305_271"/>
<feBlend mode="normal" in="SourceGraphic" in2="effect1_dropShadow_305_271" result="shape"/>
</filter>
<linearGradient id="paint0_linear_305_271" x1="48" y1="10" x2="98" y2="60" gradientUnits="userSpaceOnUse">
<stop stop-color="#4B7BE5"/>
<stop offset="1" stop-color="#CBABF4" stop-opacity="0"/>
</linearGradient>
</defs>
</svg>
